:version 1.10
:name ASF
:units
  mass 1
  length 1
  angle deg
:documentation
  ASF file generated by Kaydara
:root
  axis xyz
  order  tx ty tz rx ry rz
  position 0 0 0
  orientation 0 0 0
:bonedata
  begin
    id 1
    name RightUpLegDummy
    direction -0.65628 -0.754516 0.00165102
    length 4.76918
    axis 0 0 0 xyz
  end
  begin
    id 2
    name RightUpLeg
    direction -0.145584 -0.923362 0.355256
    length 17.9961
    axis -24.7611 -13.1006 1.78531 xyz
    dof rx ry rz
  end
  begin
    id 3
    name RightLeg
    direction 0.263379 0.172355 -0.949171
    length 13.3386
    axis 89.6202 -21.1929 12.3855 xyz
    dof rx ry rz
  end
  begin
    id 4
    name RightFoot
    direction 0.224283 -0.968777 -0.105675
    length 5.86697
    axis 56.995 -39.6905 17.3365 xyz
    dof rx ry rz
  end
  begin
    id 5
    name RightToes
    direction -0.0806345 -0.9037 0.420506
    length 4.75197
    axis 146.825 -39.7828 17.6019 xyz
    dof rx ry rz
  end
  begin
    id 6
    name SpineDummy
    direction -3.39852e-014 1 9.33296e-014
    length 8.13779
    axis 0 0 0 xyz
  end
  begin
    id 7
    name Spine
    direction -0.156609 0.733703 0.661176
    length 7.14978
    axis 41.2365 5.68757 17.0844 xyz
    dof rx ry rz
  end
  begin
    id 8
    name Spine1
    direction 0 0 0
    length 0
    axis 42.8809 47.8308 -3.36039 xyz
    dof rx ry rz
  end
  begin
    id 9
    name HEadDummy
    direction 0.546431 0.701947 0.456819
    length 3.55512
    axis 42.8809 47.8308 -3.36039 xyz
  end
  begin
    id 10
    name HEad
    direction 0.23444 0.828559 0.508457
    length 7.35827
    axis 51.1864 49.2662 27.4903 xyz
    dof rx ry rz
  end
  begin
    id 11
    name LeftShoulder1Dummy
    direction 0.431183 0.475873 -0.766568
    length 2.49352
    axis 42.8809 47.8308 -3.36039 xyz
  end
  begin
    id 12
    name LeftShoulder1
    direction 0.268187 -0.383402 -0.883786
    length 4.48604
    axis -119.517 0.106469 35.1736 xyz
    dof rx ry rz
  end
  begin
    id 13
    name LeftArm
    direction 0.380567 -0.703221 -0.600541
    length 10.1142
    axis -5.41825 36.2925 7.8293 xyz
    dof rx ry rz
  end
  begin
    id 14
    name LeftForeArm
    direction 0.541071 -0.732356 -0.413396
    length 9.39839
    axis 4.65387 33.7604 7.81644 xyz
    dof rx ry rz
  end
  begin
    id 15
    name LeftHand
    direction 0.847511 -0.389379 -0.360707
    length 3.66142
    axis 7.65593 21.1436 -24.6758 xyz
    dof rx ry rz
  end
  begin
    id 16
    name RightShoulderDummy
    direction -0.692546 0.541855 0.476208
    length 2.49352
    axis 42.8809 47.8308 -3.36039 xyz
  end
  begin
    id 17
    name RightShoulder
    direction -0.870808 -0.316653 0.376065
    length 4.48602
    axis 141.571 51.133 -100.254 xyz
    dof rx ry rz
  end
  begin
    id 18
    name RightArm
    direction 0.366897 -0.87275 0.322015
    length 10.1142
    axis 92.3258 71.2036 138.917 xyz
    dof rx ry rz
  end
  begin
    id 19
    name RightForeArm
    direction 0.702487 -0.694568 0.155197
    length 9.39835
    axis 153.863 41.5092 -176.604 xyz
    dof rx ry rz
  end
  begin
    id 20
    name RightHand
    direction 0.79502 -0.601276 0.0800636
    length 3.66142
    axis 154.247 4.59222 142.9 xyz
    dof rx ry rz
  end
  begin
    id 21
    name LeftUpLegDummy
    direction 0.65628 -0.754516 0.00165102
    length 4.76919
    axis 0 0 0 xyz
  end
  begin
    id 22
    name LeftUpLeg
    direction -0.1277 -0.689368 0.713067
    length 17.9961
    axis -48.3385 -17.8675 0.791927 xyz
    dof rx ry rz
  end
  begin
    id 23
    name LeftLeg
    direction 0.109849 -0.991246 -0.0732378
    length 13.3386
    axis -2.05791 -7.30784 1.72042 xyz
    dof rx ry rz
  end
  begin
    id 24
    name LeftFoot
    direction 0.0448355 -0.272614 0.961078
    length 5.86697
    axis -18.7733 -7.89606 10.2113 xyz
    dof rx ry rz
  end
  begin
    id 25
    name LeftToes
    direction -0.18506 0.293668 0.937823
    length 4.75197
    axis 71.2267 -7.89606 10.2113 xyz
    dof rx ry rz
  end
:hierarchy
  begin
    root RightUpLegDummy SpineDummy LeftUpLegDummy
    RightUpLegDummy RightUpLeg
    RightUpLeg RightLeg
    RightLeg RightFoot
    RightFoot RightToes
    SpineDummy Spine
    Spine Spine1
    Spine1 HEadDummy LeftShoulder1Dummy RightShoulderDummy
    HEadDummy HEad
    LeftShoulder1Dummy LeftShoulder1
    LeftShoulder1 LeftArm
    LeftArm LeftForeArm
    LeftForeArm LeftHand
    RightShoulderDummy RightShoulder
    RightShoulder RightArm
    RightArm RightForeArm
    RightForeArm RightHand
    LeftUpLegDummy LeftUpLeg
    LeftUpLeg LeftLeg
    LeftLeg LeftFoot
    LeftFoot LeftToes
  end

:SAMPLES-PER-SECOND 30
:FULLY-SPECIFIED
:DEGREES
358
root  -7.11007 32.2185 14.5735 -176.251 -6.74456 172.687
RightUpLeg  -23.842 24.2059 -6.96124
RightLeg  -46.5253 -33.4395 12.6315
RightFoot  7.04217 -0.36925 -2.94187
RightToes  -1.27222e-014 -6.36111e-015 6.36111e-015
Spine  -12.2457 -34.0525 -25.3755
Spine1  -2.0676 -23.5322 77.1121
HEad  -13.8328 26.9521 -28.6617
LeftShoulder1  6.36111e-015 -1.33558e-015 6.49777e-015
LeftArm  19.0165 -2.71794 -14.1298
LeftForeArm  -88.2574 -51.4685 90.297
LeftHand  4.45282 8.24708 7.27323
RightShoulder  -4.77083e-015 -6.36111e-015 -3.18055e-015
RightArm  101.188 -25.379 -86.1042
RightForeArm  -104.417 10.4128 -24.5604
RightHand  -2.34488 12.8049 6.60714
LeftUpLeg  59.7643 16.4688 20.2124
LeftLeg  4.76956 -7.09108 -1.06574
LeftFoot  -32.0508 0.35798 -30.1104
LeftToes  1.27222e-014 -5.20697e-012 1.80337e-011
359
root  -6.76886 33.4942 13.5237 -174.527 -3.15727 174.978
RightUpLeg  -21.27 20.6853 -3.51883
RightLeg  -50.8167 -27.7564 10.4049
RightFoot  7.00229 1.207 -5.99759
RightToes  -1.27222e-014 -6.36111e-015 6.36111e-015
Spine  -12.4182 -34.6737 -26.5591
Spine1  -2.15204 -23.4874 75.8535
HEad  -13.3485 30.5621 -24.4708
LeftShoulder1  6.36111e-015 -1.33558e-015 6.49777e-015
LeftArm  12.8139 -6.53272 -4.69129
LeftForeArm  -81.4717 -55.9155 83.8578
LeftHand  4.08013 8.40775 4.73118
RightShoulder  -4.77083e-015 -6.36111e-015 -3.18055e-015
RightArm  91.2561 -21.0737 -83.2682
RightForeArm  -111.386 10.5798 -40.9203
RightHand  -2.12212 8.8729 11.704
LeftUpLeg  58.7264 16.0068 21.4633
LeftLeg  2.22585 -3.23401 -0.429007
LeftFoot  -18.4618 3.97132 -30.0181
LeftToes  1.27222e-014 -5.20697e-012 1.80337e-011
360
root  -6.43387 34.9713 12.3955 -172.303 -1.70103 176.356
RightUpLeg  -17.5302 17.7952 -1.16256
RightLeg  -58.6484 -23.8025 10.055
RightFoot  8.27458 1.54906 -7.15257
RightToes  -1.27222e-014 -6.36111e-015 6.36111e-015
Spine  -12.7647 -35.0987 -27.7107
Spine1  -3.89653 -22.7591 74.398
HEad  -10.7561 31.8415 -19.9315
LeftShoulder1  6.36111e-015 -1.33558e-015 6.49777e-015
LeftArm  6.47232 -14.6478 -0.168053
LeftForeArm  -65.6431 -62.8817 70.489
LeftHand  3.49568 7.96404 2.40285
RightShoulder  -4.77083e-015 -6.36111e-015 -3.18055e-015
RightArm  74.8924 -12.5843 -75.9545
RightForeArm  -112.258 7.56987 -52.8611
RightHand  -2.26112 6.19709 16.3656
LeftUpLeg  52.7998 15.0353 19.9692
LeftLeg  5.55581 -0.36177 0.431486
LeftFoot  -2.92572 6.06662 -22.2978
LeftToes  1.27222e-014 -5.20697e-012 1.80337e-011
361
root  -6.20318 36.2774 11.3898 -170.73 -2.06488 177.652
RightUpLeg  -13.4071 17.7271 0.776669
RightLeg  -66.2661 -20.8979 9.90585
RightFoot  12.1222 -0.0708638 -5.64016
RightToes  -1.27222e-014 -6.36111e-015 6.36111e-015
Spine  -14.2395 -33.8727 -25.1823
Spine1  -5.23615 -21.9103 70.0888
HEad  -9.23185 30.8051 -16.7371
LeftShoulder1  6.36111e-015 -1.33558e-015 6.49777e-015
LeftArm  -0.262616 -26.7222 1.56432
LeftForeArm  -36.7684 -67.2024 44.3725
LeftHand  2.94048 7.02132 1.33647
RightShoulder  -4.77083e-015 -6.36111e-015 -3.18055e-015
RightArm  58.5904 -1.19553 -70.6812
RightForeArm  -110.12 5.08833 -60.2741
RightHand  -2.55806 2.75263 20.3658
LeftUpLeg  44.3374 12.8287 17.3303
LeftLeg  12.483 -0.109338 1.30749
LeftFoot  4.05446 4.98781 -14.8449
LeftToes  1.27222e-014 -5.20697e-012 1.80337e-011
362
root  -5.92541 37.3128 10.3368 -170.967 -3.54012 178.227
RightUpLeg  -8.51981 18.6062 2.24029
RightLeg  -70.3602 -19.2841 9.43833
RightFoot  16.8679 -1.39063 -5.23741
RightToes  -1.27222e-014 -6.36111e-015 6.36111e-015
Spine  -17.4751 -31.6994 -20.0842
Spine1  -3.43169 -22.1582 59.482
HEad  -8.75051 28.2438 -14.1194
LeftShoulder1  6.36111e-015 -1.33558e-015 6.49777e-015
LeftArm  -7.77041 -40.6335 3.46727
LeftForeArm  -7.37437 -64.4804 17.0805
LeftHand  2.53774 6.18506 0.881078
RightShoulder  -4.77083e-015 -6.36111e-015 -3.18055e-015
RightArm  45.7221 8.99326 -66.868
RightForeArm  -104.2 3.43628 -67.164
RightHand  -3.19631 0.661757 25.6511
LeftUpLeg  36.8352 10.7738 16.0574
LeftLeg  17.7913 -0.577646 1.72901
LeftFoot  1.42405 4.02691 -12.9485
LeftToes  1.27222e-014 -5.20697e-012 1.80337e-011
363
root  -5.46016 38.064 9.19172 -172.509 -5.28353 177.757
RightUpLeg  -3.26551 18.0164 3.23055
RightLeg  -69.7923 -18.8821 8.49979
RightFoot  20.0395 -0.899005 -7.11201
RightToes  -1.27222e-014 -6.36111e-015 6.36111e-015
Spine  -20.195 -30.1635 -16.413
Spine1  0.287919 -22.6751 46.0421
HEad  -7.10508 25.3213 -10.8892
LeftShoulder1  6.36111e-015 -1.33558e-015 6.49777e-015
LeftArm  -15.38 -53.2579 6.1608
LeftForeArm  9.21054 -57.9525 2.06933
LeftHand  2.29864 5.78103 0.330305
RightShoulder  -4.77083e-015 -6.36111e-015 -3.18055e-015
RightArm  36.3686 17.565 -59.673
RightForeArm  -92.9539 5.11103 -72.0944
RightHand  -3.80579 1.08914 31.0687
LeftUpLeg  30.5381 10.9229 17.0311
LeftLeg  17.819 -1.05243 1.52258
LeftFoot  -2.87393 4.25273 -15.6623
LeftToes  1.27222e-014 -5.20697e-012 1.80337e-011
364
root  -4.88351 38.3858 8.02014 -174.219 -6.7822 176.869
RightUpLeg  1.94955 17.2999 4.40817
RightLeg  -65.1099 -19.5893 7.5426
RightFoot  20.5076 0.154629 -8.8399
RightToes  -1.27222e-014 -6.36111e-015 6.36111e-015
Spine  -20.5232 -29.0604 -15.1984
Spine1  2.73512 -22.1398 35.3377
HEad  -4.7842 22.3652 -7.43324
LeftShoulder1  6.36111e-015 -1.33558e-015 6.49777e-015
LeftArm  -22.8278 -63.2804 9.03952
LeftForeArm  16.2087 -50.3598 -4.28556
LeftHand  2.02688 5.41474 -0.595667
RightShoulder  -4.77083e-015 -6.36111e-015 -3.18055e-015
RightArm  30.8857 25.2056 -48.7271
RightForeArm  -77.6011 11.6527 -72.7738
RightHand  -4.15093 1.93677 34.9508
LeftUpLeg  24.8222 14.2209 19.4135
LeftLeg  13.0444 -2.26727 0.602013
LeftFoot  -3.95323 4.63635 -17.708
LeftToes  1.27222e-014 -5.20697e-012 1.80337e-011
365
root  -4.28322 38.3193 6.81101 -175.517 -8.24622 175.545
RightUpLeg  7.50105 17.1778 5.69373
RightLeg  -59.1032 -20.8921 6.95992
RightFoot  19.9818 1.48376 -10.7004
RightToes  -1.27222e-014 -6.36111e-015 6.36111e-015
Spine  -19.2483 -28.0286 -15.5876
Spine1  4.05952 -20.8629 26.7897
HEad  -4.17657 19.113 -4.68777
LeftShoulder1  6.36111e-015 -1.33558e-015 6.49777e-015
LeftArm  -33.626 -69.0777 13.0579
LeftForeArm  19.1763 -44.2526 -7.62856
LeftHand  1.58318 4.7013 -1.90361
RightShoulder  -4.77083e-015 -6.36111e-015 -3.18055e-015
RightArm  28.0519 32.0101 -38.4352
RightForeArm  -59.8252 21.1921 -67.103
RightHand  -4.20272 2.69808 36.4033
LeftUpLeg  19.385 19.8282 20.9188
LeftLeg  5.92971 -6.06237 -0.823938
LeftFoot  -1.60921 5.06956 -17.8855
LeftToes  1.27222e-014 -5.20697e-012 1.80337e-011
366
root  -3.73529 38.0005 5.59833 -175.916 -10.1896 173.733
RightUpLeg  12.5084 16.3377 6.01932
RightLeg  -55.3721 -23.0716 7.98213
RightFoot  20.947 3.54965 -14.0587
RightToes  -1.27222e-014 -6.36111e-015 6.36111e-015
Spine  -17.9892 -26.8327 -15.8262
Spine1  5.1686 -19.3317 18.729
HEad  -4.87719 16.0076 -3.01155
LeftShoulder1  6.36111e-015 -1.33558e-015 6.49777e-015
LeftArm  -42.5253 -67.7012 10.4436
LeftForeArm  23.2226 -43.8173 -11.9971
LeftHand  1.1782 3.99143 -3.06499
RightShoulder  -4.77083e-015 -6.36111e-015 -3.18055e-015
RightArm  27.335 38.5121 -29.4086
RightForeArm  -39.2916 28.9592 -52.8888
RightHand  -3.97671 2.79452 34.3391
LeftUpLeg  13.5817 27.1815 20.719
LeftLeg  -2.21696 -12.1117 -1.41717
LeftFoot  3.80434 7.2363 -21.5797
LeftToes  1.27222e-014 -5.20697e-012 1.80337e-011
367
root  -3.39989 37.3513 4.24297 -175.403 -12.1886 172.539
RightUpLeg  16.5083 15.015 5.85567
RightLeg  -56.1119 -26.5915 11.7916
RightFoot  22.9536 5.52942 -17.3431
RightToes  -1.27222e-014 -6.36111e-015 6.36111e-015
Spine  -19.2221 -24.0865 -13.4737
Spine1  7.17567 -16.8182 10.8034
HEad  -5.79916 13.1117 -2.51401
LeftShoulder1  6.36111e-015 -1.33558e-015 6.49777e-015
LeftArm  -43.6211 -67.9698 2.28218
LeftForeArm  20.6861 -43.5724 -9.41502
LeftHand  0.998815 3.60191 -3.40026
RightShoulder  -4.77083e-015 -6.36111e-015 -3.18055e-015
RightArm  28.9617 44.1192 -20.1396
RightForeArm  -16.6782 29.0902 -31.8669
RightHand  -3.52795 1.67087 29.0771
LeftUpLeg  8.61221 38.3109 20.5912
LeftLeg  -11.232 -17.1947 -0.269338
LeftFoot  11.7374 12.1604 -29.1708
LeftToes  1.27222e-014 -5.20697e-012 1.80337e-011
368
root  -3.32626 36.2412 2.61446 -174.945 -13.2457 172.644
RightUpLeg  20.8453 14.8609 6.57639
RightLeg  -61.844 -30.4968 18.9638
RightFoot  23.2638 6.74604 -19.1651
RightToes  -1.27222e-014 -6.36111e-015 6.36111e-015
Spine  -21.6232 -19.6194 -9.85519
Spine1  8.94527 -13.3535 3.67959
HEad  -6.20841 10.3899 -2.75201
LeftShoulder1  6.36111e-015 -1.33558e-015 6.49777e-015
LeftArm  -40.0171 -67.9976 -8.86481
LeftForeArm  16.5478 -44.2614 -5.42848
LeftHand  0.892601 3.21787 -3.13498
RightShoulder  -4.77083e-015 -6.36111e-015 -3.18055e-015
RightArm  33.8725 48.0037 -9.36898
RightForeArm  1.07258 19.0861 -12.945
RightHand  -2.95933 0.636038 23.6627
LeftUpLeg  4.86413 50.6717 20.0403
LeftLeg  -16.6675 -19.167 0.960672
LeftFoot  19.8976 15.5043 -30.8054
LeftToes  1.27222e-014 -5.20697e-012 1.80337e-011
369
root  -3.36094 34.7921 0.933933 -175.492 -13.761 172.981
RightUpLeg  25.9397 15.3344 6.75453
RightLeg  -68.9556 -32.5313 26.5157
RightFoot  20.2474 6.75734 -18.8642
RightToes  -1.27222e-014 -6.36111e-015 6.36111e-015
Spine  -21.6346 -15.5448 -7.98573
Spine1  8.83873 -10.3304 -1.09932
HEad  -6.00067 8.83137 -3.54664
LeftShoulder1  6.36111e-015 -1.33558e-015 6.49777e-015
LeftArm  -36.2371 -66.6402 -18.5927
LeftForeArm  14.5262 -45.8674 -4.05873
LeftHand  0.637635 2.61868 -3.50533
RightShoulder  -4.77083e-015 -6.36111e-015 -3.18055e-015
RightArm  19.6234 42.8646 -15.1369
RightForeArm  16.1874 16.9416 6.16808
RightHand  -2.64788 0.792884 21.0722
LeftUpLeg  -1.0413 51.5793 14.8015
LeftLeg  -13.102 -16.6162 -0.0545321
LeftFoot  23.5267 11.8425 -22.0257
LeftToes  1.27222e-014 -5.20697e-012 1.80337e-011
370
root  -3.4218 33.2386 -0.677659 -177.24 -14.7559 172.58
RightUpLeg  30.6134 14.0914 3.22094
RightLeg  -69.3966 -32.0905 26.4099
RightFoot  15.2915 4.59598 -14.6053
RightToes  -1.27222e-014 -6.36111e-015 6.36111e-015
Spine  -19.7125 -13.0328 -7.42288
Spine1  7.95109 -8.53119 -2.80261
HEad  -6.15422 9.62053 -5.32189
LeftShoulder1  6.36111e-015 -1.33558e-015 6.49777e-015
LeftArm  -35.9257 -66.7931 -21.3132
LeftForeArm  13.5034 -47.3982 -3.24461
LeftHand  0.253037 1.95616 -4.97626
RightShoulder  -4.77083e-015 -6.36111e-015 -3.18055e-015
RightArm  7.18206 34.7519 -22.42
RightForeArm  25.8574 16.6162 16.3589
RightHand  -2.61178 1.6777 20.8202
LeftUpLeg  -6.73672 43.0347 7.99517
LeftLeg  -2.09486 -8.71098 -1.18642
LeftFoot  21.5576 2.90941 -5.77628
LeftToes  1.27222e-014 -5.20697e-012 1.80337e-011
